<svg width="95" height="16" viewBox="0 0 95 16" fill="none" xmlns="http://www.w3.org/2000/svg">
<path d="M9.18 10.34C9.18 11.02 9.1 11.66 8.94 12.26C8.79333 12.86 8.52667 13.3867 8.14 13.84C7.76667 14.28 7.25333 14.6333 6.6 14.9C5.96 15.1533 5.14667 15.28 4.16 15.28C3.25333 15.28 2.47333 15.1733 1.82 14.96C1.16667 14.7333 0.626667 14.4733 0.2 14.18L1.24 11.76C1.62667 11.9867 2.04 12.1867 2.48 12.36C2.92 12.5333 3.4 12.62 3.92 12.62C4.68 12.62 5.22667 12.4333 5.56 12.06C5.89333 11.6867 6.06 11.06 6.06 10.18V1.14H9.18V10.34ZM14.8059 8.06C14.8059 8.74 14.8859 9.35333 15.0459 9.9C15.2193 10.4467 15.4593 10.92 15.7659 11.32C16.0859 11.7067 16.4726 12.0067 16.9259 12.22C17.3793 12.4333 17.8993 12.54 18.4859 12.54C19.0593 12.54 19.5726 12.4333 20.0259 12.22C20.4926 12.0067 20.8793 11.7067 21.1859 11.32C21.5059 10.92 21.7459 10.4467 21.9059 9.9C22.0793 9.35333 22.1659 8.74 22.1659 8.06C22.1659 7.38 22.0793 6.76667 21.9059 6.22C21.7459 5.66 21.5059 5.18667 21.1859 4.8C20.8793 4.4 20.4926 4.09333 20.0259 3.88C19.5726 3.66667 19.0593 3.56 18.4859 3.56C17.8993 3.56 17.3793 3.67333 16.9259 3.9C16.4726 4.11333 16.0859 4.42 15.7659 4.82C15.4593 5.20667 15.2193 5.68 15.0459 6.24C14.8859 6.78667 14.8059 7.39333 14.8059 8.06ZM25.3859 8.06C25.3859 9.24667 25.2059 10.2933 24.8459 11.2C24.4993 12.0933 24.0193 12.8467 23.4059 13.46C22.7926 14.06 22.0593 14.5133 21.2059 14.82C20.3659 15.1267 19.4593 15.28 18.4859 15.28C17.5393 15.28 16.6459 15.1267 15.8059 14.82C14.9659 14.5133 14.2326 14.06 13.6059 13.46C12.9793 12.8467 12.4859 12.0933 12.1259 11.2C11.7659 10.2933 11.5859 9.24667 11.5859 8.06C11.5859 6.87333 11.7726 5.83333 12.1459 4.94C12.5193 4.03333 13.0193 3.27333 13.6459 2.66C14.2859 2.04667 15.0193 1.58667 15.8459 1.28C16.6859 0.973332 17.5659 0.819999 18.4859 0.819999C19.4326 0.819999 20.3259 0.973332 21.1659 1.28C22.0059 1.58667 22.7393 2.04667 23.3659 2.66C23.9926 3.27333 24.4859 4.03333 24.8459 4.94C25.2059 5.83333 25.3859 6.87333 25.3859 8.06ZM33.4067 15.28C32.4334 15.28 31.5934 15.1467 30.8867 14.88C30.1801 14.6 29.5934 14.22 29.1267 13.74C28.6734 13.2467 28.3334 12.6667 28.1067 12C27.8934 11.32 27.7867 10.5733 27.7867 9.76V1.14H30.9067V9.5C30.9067 10.06 30.9667 10.54 31.0867 10.94C31.2201 11.3267 31.3934 11.6467 31.6067 11.9C31.8334 12.14 32.1001 12.3133 32.4067 12.42C32.7267 12.5267 33.0734 12.58 33.4467 12.58C34.2067 12.58 34.8201 12.3467 35.2867 11.88C35.7667 11.4133 36.0067 10.62 36.0067 9.5V1.14H39.1267V9.76C39.1267 10.5733 39.0134 11.32 38.7867 12C38.5601 12.68 38.2134 13.2667 37.7467 13.76C37.2801 14.24 36.6867 14.6133 35.9667 14.88C35.2467 15.1467 34.3934 15.28 33.4067 15.28ZM46.1873 0.979999C48.2673 0.979999 49.8607 1.35333 50.9673 2.1C52.074 2.83333 52.6273 3.98 52.6273 5.54C52.6273 6.51333 52.4007 7.30667 51.9473 7.92C51.5073 8.52 50.8673 8.99333 50.0273 9.34C50.3073 9.68667 50.6007 10.0867 50.9073 10.54C51.214 10.98 51.514 11.4467 51.8073 11.94C52.114 12.42 52.4073 12.9267 52.6873 13.46C52.9673 13.98 53.2273 14.4933 53.4673 15H49.9673C49.714 14.5467 49.454 14.0867 49.1873 13.62C48.934 13.1533 48.6673 12.7 48.3873 12.26C48.1207 11.82 47.854 11.4067 47.5873 11.02C47.3207 10.62 47.054 10.26 46.7873 9.94H45.2473V15H42.1273V1.34C42.8073 1.20667 43.5073 1.11333 44.2273 1.06C44.9607 1.00667 45.614 0.979999 46.1873 0.979999ZM46.3673 3.64C46.1407 3.64 45.934 3.64667 45.7473 3.66C45.574 3.67333 45.4073 3.68667 45.2473 3.7V7.46H46.1273C47.3007 7.46 48.1407 7.31333 48.6473 7.02C49.154 6.72667 49.4073 6.22667 49.4073 5.52C49.4073 4.84 49.1473 4.36 48.6273 4.08C48.1207 3.78667 47.3673 3.64 46.3673 3.64ZM64.7672 15C63.8739 13.4133 62.9072 11.8467 61.8672 10.3C60.8272 8.75333 59.7205 7.29333 58.5472 5.92V15H55.4672V1.14H58.0072C58.4472 1.58 58.9339 2.12 59.4672 2.76C60.0005 3.4 60.5405 4.08667 61.0872 4.82C61.6472 5.54 62.2005 6.29333 62.7472 7.08C63.2939 7.85333 63.8072 8.6 64.2872 9.32V1.14H67.3872V15H64.7672ZM70.5844 15V1.14H79.9444V3.76H73.7044V6.48H79.2444V9.04H73.7044V12.38H80.4044V15H70.5844ZM87.9886 6.84C88.5486 5.89333 89.0819 4.94667 89.5886 4C90.0953 3.05333 90.5619 2.1 90.9886 1.14H94.4286C93.6686 2.63333 92.8819 4.08 92.0686 5.48C91.2553 6.88 90.3953 8.28667 89.4886 9.7V15H86.3686V9.74C85.4619 8.32667 84.5953 6.91333 83.7686 5.5C82.9553 4.08667 82.1686 2.63333 81.4086 1.14H85.0286C85.4553 2.1 85.9153 3.05333 86.4086 4C86.9019 4.94667 87.4286 5.89333 87.9886 6.84Z" fill="#3CB878"/>
</svg>
