<svg width="104" height="17" viewBox="0 0 104 17" fill="none" xmlns="http://www.w3.org/2000/svg">
<path d="M10.098 10.874C10.098 11.622 10.01 12.326 9.834 12.986C9.67267 13.646 9.37933 14.2253 8.954 14.724C8.54333 15.208 7.97867 15.5967 7.26 15.89C6.556 16.1687 5.66133 16.308 4.576 16.308C3.57867 16.308 2.72067 16.1907 2.002 15.956C1.28333 15.7067 0.689333 15.4207 0.22 15.098L1.364 12.436C1.78933 12.6853 2.244 12.9053 2.728 13.096C3.212 13.2867 3.74 13.382 4.312 13.382C5.148 13.382 5.74933 13.1767 6.116 12.766C6.48267 12.3553 6.666 11.666 6.666 10.698V0.754H10.098V10.874ZM16.2865 8.366C16.2865 9.114 16.3745 9.78867 16.5505 10.39C16.7412 10.9913 17.0052 11.512 17.3425 11.952C17.6945 12.3773 18.1199 12.7073 18.6185 12.942C19.1172 13.1767 19.6892 13.294 20.3345 13.294C20.9652 13.294 21.5299 13.1767 22.0285 12.942C22.5419 12.7073 22.9672 12.3773 23.3045 11.952C23.6565 11.512 23.9205 10.9913 24.0965 10.39C24.2872 9.78867 24.3825 9.114 24.3825 8.366C24.3825 7.618 24.2872 6.94333 24.0965 6.342C23.9205 5.726 23.6565 5.20533 23.3045 4.78C22.9672 4.34 22.5419 4.00267 22.0285 3.768C21.5299 3.53333 20.9652 3.416 20.3345 3.416C19.6892 3.416 19.1172 3.54067 18.6185 3.79C18.1199 4.02467 17.6945 4.362 17.3425 4.802C17.0052 5.22733 16.7412 5.748 16.5505 6.364C16.3745 6.96533 16.2865 7.63267 16.2865 8.366ZM27.9245 8.366C27.9245 9.67133 27.7265 10.8227 27.3305 11.82C26.9492 12.8027 26.4212 13.6313 25.7465 14.306C25.0719 14.966 24.2652 15.4647 23.3265 15.802C22.4025 16.1393 21.4052 16.308 20.3345 16.308C19.2932 16.308 18.3105 16.1393 17.3865 15.802C16.4625 15.4647 15.6559 14.966 14.9665 14.306C14.2772 13.6313 13.7345 12.8027 13.3385 11.82C12.9425 10.8227 12.7445 9.67133 12.7445 8.366C12.7445 7.06067 12.9499 5.91667 13.3605 4.934C13.7712 3.93667 14.3212 3.10067 15.0105 2.426C15.7145 1.75133 16.5212 1.24533 17.4305 0.907999C18.3545 0.570666 19.3225 0.401999 20.3345 0.401999C21.3759 0.401999 22.3585 0.570666 23.2825 0.907999C24.2065 1.24533 25.0132 1.75133 25.7025 2.426C26.3919 3.10067 26.9345 3.93667 27.3305 4.934C27.7265 5.91667 27.9245 7.06067 27.9245 8.366ZM36.7474 16.308C35.6767 16.308 34.7527 16.1613 33.9754 15.868C33.1981 15.56 32.5527 15.142 32.0394 14.614C31.5407 14.0713 31.1667 13.4333 30.9174 12.7C30.6827 11.952 30.5654 11.1307 30.5654 10.236V0.754H33.9974V9.95C33.9974 10.566 34.0634 11.094 34.1954 11.534C34.3421 11.9593 34.5327 12.3113 34.7674 12.59C35.0167 12.854 35.3101 13.0447 35.6474 13.162C35.9994 13.2793 36.3807 13.338 36.7914 13.338C37.6274 13.338 38.3021 13.0813 38.8154 12.568C39.3434 12.0547 39.6074 11.182 39.6074 9.95V0.754H43.0394V10.236C43.0394 11.1307 42.9147 11.952 42.6654 12.7C42.4161 13.448 42.0347 14.0933 41.5214 14.636C41.0081 15.164 40.3554 15.5747 39.5634 15.868C38.7714 16.1613 37.8327 16.308 36.7474 16.308ZM50.8061 0.577999C53.0941 0.577999 54.8467 0.988666 56.0641 1.81C57.2814 2.61667 57.8901 3.878 57.8901 5.594C57.8901 6.66467 57.6407 7.53733 57.1421 8.212C56.6581 8.872 55.9541 9.39267 55.0301 9.774C55.3381 10.1553 55.6607 10.5953 55.9981 11.094C56.3354 11.578 56.6654 12.0913 56.9881 12.634C57.3254 13.162 57.6481 13.7193 57.9561 14.306C58.2641 14.878 58.5501 15.4427 58.8141 16H54.9641C54.6854 15.5013 54.3994 14.9953 54.1061 14.482C53.8274 13.9687 53.5341 13.47 53.2261 12.986C52.9327 12.502 52.6394 12.0473 52.3461 11.622C52.0527 11.182 51.7594 10.786 51.4661 10.434H49.7721V16H46.3401V0.973999C47.0881 0.827333 47.8581 0.724666 48.6501 0.665999C49.4567 0.607333 50.1754 0.577999 50.8061 0.577999ZM51.0041 3.504C50.7547 3.504 50.5274 3.51133 50.3221 3.526C50.1314 3.54067 49.9481 3.55533 49.7721 3.57V7.706H50.7401C52.0307 7.706 52.9547 7.54467 53.5121 7.222C54.0694 6.89933 54.3481 6.34933 54.3481 5.572C54.3481 4.824 54.0621 4.296 53.4901 3.988C52.9327 3.66533 52.1041 3.504 51.0041 3.504ZM71.2439 16C70.2612 14.2547 69.1979 12.5313 68.0539 10.83C66.9099 9.12867 65.6926 7.52267 64.4019 6.012V16H61.0139V0.754H63.8079C64.2919 1.238 64.8272 1.832 65.4139 2.536C66.0006 3.24 66.5946 3.99533 67.1959 4.802C67.8119 5.594 68.4206 6.42267 69.0219 7.288C69.6232 8.13867 70.1879 8.96 70.7159 9.752V0.754H74.1259V16H71.2439ZM77.6428 16V0.754H87.9388V3.636H81.0748V6.628H87.1688V9.444H81.0748V13.118H88.4448V16H77.6428ZM96.7875 7.024C97.4035 5.98267 97.9901 4.94133 98.5475 3.9C99.1048 2.85867 99.6181 1.81 100.087 0.754H103.871C103.035 2.39667 102.17 3.988 101.275 5.528C100.381 7.068 99.4348 8.61533 98.4375 10.17V16H95.0055V10.214C94.0081 8.65933 93.0548 7.10467 92.1455 5.55C91.2508 3.99533 90.3855 2.39667 89.5495 0.754H93.5315C94.0008 1.81 94.5068 2.85867 95.0495 3.9C95.5921 4.94133 96.1715 5.98267 96.7875 7.024Z" fill="white"/>
</svg>
